<svg width="221" height="75" viewBox="0 0 221 75" fill="none" xmlns="http://www.w3.org/2000/svg">
<g clip-path="url(#clip0_1776_3)">
<rect x="76" y="48" width="144" height="18" fill="#E6351D"/>
<path d="M82.3807 24.8068V20.0398H83.1705C83.4394 19.8466 83.6856 19.5739 83.9091 19.2216C84.1326 18.8655 84.3239 18.375 84.483 17.75C84.642 17.1212 84.7557 16.2992 84.8239 15.2841L85.1534 10.3636H92.8523V20.0398H94.125V24.7955H91.7614V22H84.7443V24.8068H82.3807ZM86.0114 20.0398H90.4886V12.392H87.3693L87.1875 15.2841C87.1383 16.053 87.0568 16.7348 86.9432 17.3295C86.8333 17.9242 86.6989 18.4451 86.5398 18.892C86.3845 19.3352 86.2083 19.7178 86.0114 20.0398ZM99.5185 22.1705C98.6359 22.1705 97.8726 21.983 97.2287 21.608C96.5885 21.2292 96.0942 20.7027 95.7457 20.0284C95.3973 19.3504 95.223 18.5644 95.223 17.6705C95.223 16.7689 95.3973 15.9811 95.7457 15.3068C96.0942 14.6288 96.5885 14.1023 97.2287 13.7273C97.8726 13.3485 98.6359 13.1591 99.5185 13.1591C100.401 13.1591 101.162 13.3485 101.803 13.7273C102.446 14.1023 102.943 14.6288 103.291 15.3068C103.64 15.9811 103.814 16.7689 103.814 17.6705C103.814 18.5644 103.64 19.3504 103.291 20.0284C102.943 20.7027 102.446 21.2292 101.803 21.608C101.162 21.983 100.401 22.1705 99.5185 22.1705ZM99.5298 20.2955C99.9313 20.2955 100.267 20.1818 100.536 19.9545C100.804 19.7235 101.007 19.4091 101.143 19.0114C101.284 18.6136 101.354 18.161 101.354 17.6534C101.354 17.1458 101.284 16.6932 101.143 16.2955C101.007 15.8977 100.804 15.5833 100.536 15.3523C100.267 15.1212 99.9313 15.0057 99.5298 15.0057C99.1245 15.0057 98.7836 15.1212 98.5071 15.3523C98.2344 15.5833 98.0279 15.8977 97.8878 16.2955C97.7514 16.6932 97.6832 17.1458 97.6832 17.6534C97.6832 18.161 97.7514 18.6136 97.8878 19.0114C98.0279 19.4091 98.2344 19.7235 98.5071 19.9545C98.7836 20.1818 99.1245 20.2955 99.5298 20.2955ZM104.876 22L104.865 20.0795H105.155C105.359 20.0795 105.536 20.0303 105.683 19.9318C105.835 19.8295 105.96 19.6648 106.058 19.4375C106.157 19.2102 106.234 18.9091 106.291 18.5341C106.348 18.1553 106.386 17.6894 106.405 17.1364L106.547 13.2727H113.183V22H110.876V15.1761H108.723L108.587 17.8409C108.553 18.572 108.464 19.2008 108.32 19.7273C108.179 20.2538 107.984 20.6856 107.734 21.0227C107.484 21.3561 107.183 21.6023 106.831 21.7614C106.479 21.9205 106.07 22 105.604 22H104.876ZM116.241 25.2727C115.935 25.2727 115.647 25.2481 115.378 25.1989C115.113 25.1534 114.893 25.0947 114.719 25.0227L115.264 23.2159C115.548 23.303 115.804 23.3504 116.031 23.358C116.262 23.3655 116.461 23.3125 116.628 23.1989C116.798 23.0852 116.937 22.892 117.043 22.6193L117.185 22.25L114.054 13.2727H116.599L118.406 19.6818H118.497L120.321 13.2727H122.884L119.491 22.9432C119.329 23.4129 119.107 23.822 118.827 24.1705C118.55 24.5227 118.2 24.7936 117.776 24.983C117.351 25.1761 116.84 25.2727 116.241 25.2727ZM131.462 13.2727V22H129.166V13.2727H131.462ZM130.342 17.1023V19.0114C130.157 19.0947 129.926 19.1742 129.649 19.25C129.373 19.322 129.083 19.3807 128.78 19.4261C128.477 19.4716 128.193 19.4943 127.928 19.4943C126.674 19.4943 125.687 19.2367 124.967 18.7216C124.248 18.2027 123.888 17.375 123.888 16.2386V13.2614H126.172V16.2386C126.172 16.5758 126.229 16.8428 126.342 17.0398C126.46 17.2367 126.645 17.3788 126.899 17.4659C127.157 17.5492 127.5 17.5909 127.928 17.5909C128.325 17.5909 128.715 17.5492 129.098 17.4659C129.481 17.3826 129.895 17.2614 130.342 17.1023ZM135.83 22.1648C135.273 22.1648 134.777 22.0682 134.341 21.875C133.905 21.678 133.561 21.3883 133.307 21.0057C133.057 20.6193 132.932 20.1383 132.932 19.5625C132.932 19.0777 133.021 18.6705 133.199 18.3409C133.377 18.0114 133.619 17.7462 133.926 17.5455C134.233 17.3447 134.581 17.1932 134.972 17.0909C135.366 16.9886 135.778 16.9167 136.21 16.875C136.718 16.822 137.127 16.7727 137.438 16.7273C137.748 16.678 137.973 16.6061 138.114 16.5114C138.254 16.4167 138.324 16.2765 138.324 16.0909V16.0568C138.324 15.697 138.21 15.4186 137.983 15.2216C137.759 15.0246 137.441 14.9261 137.028 14.9261C136.593 14.9261 136.246 15.0227 135.989 15.2159C135.731 15.4053 135.561 15.6439 135.477 15.9318L133.239 15.75C133.352 15.2197 133.576 14.7614 133.909 14.375C134.242 13.9848 134.672 13.6856 135.199 13.4773C135.729 13.2652 136.343 13.1591 137.04 13.1591C137.525 13.1591 137.989 13.2159 138.432 13.3295C138.879 13.4432 139.275 13.6193 139.619 13.858C139.968 14.0966 140.242 14.4034 140.443 14.7784C140.644 15.1496 140.744 15.5947 140.744 16.1136V22H138.449V20.7898H138.381C138.241 21.0625 138.053 21.303 137.818 21.5114C137.583 21.7159 137.301 21.8769 136.972 21.9943C136.642 22.108 136.261 22.1648 135.83 22.1648ZM136.523 20.4943C136.879 20.4943 137.193 20.4242 137.466 20.2841C137.739 20.1402 137.953 19.947 138.108 19.7045C138.263 19.4621 138.341 19.1875 138.341 18.8807V17.9545C138.265 18.0038 138.161 18.0492 138.028 18.0909C137.9 18.1288 137.754 18.1648 137.591 18.1989C137.428 18.2292 137.265 18.2576 137.102 18.2841C136.939 18.3068 136.792 18.3277 136.659 18.3466C136.375 18.3883 136.127 18.4545 135.915 18.5455C135.703 18.6364 135.538 18.7595 135.42 18.9148C135.303 19.0663 135.244 19.2557 135.244 19.483C135.244 19.8125 135.364 20.0644 135.602 20.2386C135.845 20.4091 136.152 20.4943 136.523 20.4943ZM144.935 18.8068L148.077 13.2727H150.463V22H148.156V16.4489L145.026 22H142.622V13.2727H144.935V18.8068ZM147.662 10.2273H149.349C149.346 10.9167 149.09 11.4716 148.582 11.892C148.079 12.3125 147.397 12.5227 146.537 12.5227C145.673 12.5227 144.99 12.3125 144.486 11.892C143.982 11.4716 143.73 10.9167 143.73 10.2273H145.406C145.402 10.4886 145.486 10.7235 145.656 10.9318C145.83 11.1402 146.124 11.2443 146.537 11.2443C146.938 11.2443 147.226 11.142 147.401 10.9375C147.575 10.733 147.662 10.4962 147.662 10.2273ZM156.347 22.1705C155.453 22.1705 154.684 21.9811 154.04 21.6023C153.4 21.2197 152.907 20.6894 152.562 20.0114C152.222 19.3333 152.051 18.553 152.051 17.6705C152.051 16.7765 152.223 15.9924 152.568 15.3182C152.917 14.6402 153.411 14.1117 154.051 13.733C154.691 13.3504 155.453 13.1591 156.335 13.1591C157.097 13.1591 157.763 13.2973 158.335 13.5739C158.907 13.8504 159.36 14.2386 159.693 14.7386C160.027 15.2386 160.21 15.8258 160.244 16.5H157.96C157.896 16.0644 157.725 15.714 157.449 15.4489C157.176 15.1799 156.818 15.0455 156.375 15.0455C156 15.0455 155.672 15.1477 155.392 15.3523C155.116 15.553 154.9 15.8466 154.744 16.233C154.589 16.6193 154.511 17.0871 154.511 17.6364C154.511 18.1932 154.587 18.6667 154.739 19.0568C154.894 19.447 155.112 19.7443 155.392 19.9489C155.672 20.1534 156 20.2557 156.375 20.2557C156.652 20.2557 156.9 20.1989 157.119 20.0852C157.343 19.9716 157.527 19.8068 157.67 19.5909C157.818 19.3712 157.915 19.108 157.96 18.8011H160.244C160.206 19.4678 160.025 20.0549 159.699 20.5625C159.377 21.0663 158.932 21.4602 158.364 21.7443C157.795 22.0284 157.123 22.1705 156.347 22.1705ZM166.908 22V15.1705H165.271C164.828 15.1705 164.491 15.2727 164.26 15.4773C164.029 15.6818 163.915 15.9242 163.919 16.2045C163.915 16.4886 164.025 16.7292 164.249 16.9261C164.476 17.1193 164.809 17.2159 165.249 17.2159H167.714V18.8523H165.249C164.502 18.8523 163.857 18.7386 163.311 18.5114C162.766 18.2841 162.345 17.9678 162.05 17.5625C161.754 17.1534 161.608 16.678 161.612 16.1364C161.608 15.5682 161.754 15.0701 162.05 14.642C162.345 14.2102 162.768 13.875 163.317 13.6364C163.87 13.3939 164.521 13.2727 165.271 13.2727H169.163V22H166.908ZM161.362 22L163.788 17.4545H166.101L163.68 22H161.362ZM82.3807 43.8068V39.0398H83.1705C83.4394 38.8466 83.6856 38.5739 83.9091 38.2216C84.1326 37.8655 84.3239 37.375 84.483 36.75C84.642 36.1212 84.7557 35.2992 84.8239 34.2841L85.1534 29.3636H92.8523V39.0398H94.125V43.7955H91.7614V41H84.7443V43.8068H82.3807ZM86.0114 39.0398H90.4886V31.392H87.3693L87.1875 34.2841C87.1383 35.053 87.0568 35.7348 86.9432 36.3295C86.8333 36.9242 86.6989 37.4451 86.5398 37.892C86.3845 38.3352 86.2083 38.7178 86.0114 39.0398ZM99.5185 41.1705C98.6359 41.1705 97.8726 40.983 97.2287 40.608C96.5885 40.2292 96.0942 39.7027 95.7457 39.0284C95.3973 38.3504 95.223 37.5644 95.223 36.6705C95.223 35.7689 95.3973 34.9811 95.7457 34.3068C96.0942 33.6288 96.5885 33.1023 97.2287 32.7273C97.8726 32.3485 98.6359 32.1591 99.5185 32.1591C100.401 32.1591 101.162 32.3485 101.803 32.7273C102.446 33.1023 102.943 33.6288 103.291 34.3068C103.64 34.9811 103.814 35.7689 103.814 36.6705C103.814 37.5644 103.64 38.3504 103.291 39.0284C102.943 39.7027 102.446 40.2292 101.803 40.608C101.162 40.983 100.401 41.1705 99.5185 41.1705ZM99.5298 39.2955C99.9313 39.2955 100.267 39.1818 100.536 38.9545C100.804 38.7235 101.007 38.4091 101.143 38.0114C101.284 37.6136 101.354 37.161 101.354 36.6534C101.354 36.1458 101.284 35.6932 101.143 35.2955C101.007 34.8977 100.804 34.5833 100.536 34.3523C100.267 34.1212 99.9313 34.0057 99.5298 34.0057C99.1245 34.0057 98.7836 34.1212 98.5071 34.3523C98.2344 34.5833 98.0279 34.8977 97.8878 35.2955C97.7514 35.6932 97.6832 36.1458 97.6832 36.6534C97.6832 37.161 97.7514 37.6136 97.8878 38.0114C98.0279 38.4091 98.2344 38.7235 98.5071 38.9545C98.7836 39.1818 99.1245 39.2955 99.5298 39.2955ZM119.403 33.4375H116.915C116.869 33.1155 116.777 32.8295 116.636 32.5795C116.496 32.3258 116.316 32.1098 116.097 31.9318C115.877 31.7538 115.623 31.6174 115.335 31.5227C115.051 31.428 114.742 31.3807 114.409 31.3807C113.807 31.3807 113.282 31.5303 112.835 31.8295C112.388 32.125 112.042 32.5568 111.795 33.125C111.549 33.6894 111.426 34.375 111.426 35.1818C111.426 36.0114 111.549 36.7083 111.795 37.2727C112.045 37.8371 112.394 38.2633 112.841 38.5511C113.288 38.839 113.805 38.983 114.392 38.983C114.722 38.983 115.027 38.9394 115.307 38.8523C115.591 38.7652 115.843 38.6383 116.062 38.4716C116.282 38.3011 116.464 38.0947 116.608 37.8523C116.756 37.6098 116.858 37.3333 116.915 37.0227L119.403 37.0341C119.339 37.5682 119.178 38.0833 118.92 38.5795C118.667 39.072 118.324 39.5133 117.892 39.9034C117.464 40.2898 116.953 40.5966 116.358 40.8239C115.767 41.0473 115.098 41.1591 114.352 41.1591C113.314 41.1591 112.386 40.9242 111.568 40.4545C110.754 39.9848 110.11 39.3049 109.636 38.4148C109.167 37.5246 108.932 36.447 108.932 35.1818C108.932 33.9129 109.17 32.8333 109.648 31.9432C110.125 31.053 110.773 30.375 111.591 29.9091C112.409 29.4394 113.33 29.2045 114.352 29.2045C115.027 29.2045 115.652 29.2992 116.227 29.4886C116.807 29.678 117.32 29.9545 117.767 30.3182C118.214 30.678 118.578 31.1193 118.858 31.642C119.142 32.1648 119.324 32.7633 119.403 33.4375ZM121.122 41V32.2727H128.753V41H126.44V34.1761H123.406V41H121.122ZM130.685 41V32.2727H133.105V41H130.685ZM131.901 31.1477C131.541 31.1477 131.232 31.0284 130.974 30.7898C130.721 30.5473 130.594 30.2576 130.594 29.9205C130.594 29.5871 130.721 29.3011 130.974 29.0625C131.232 28.8201 131.541 28.6989 131.901 28.6989C132.26 28.6989 132.567 28.8201 132.821 29.0625C133.079 29.3011 133.207 29.5871 133.207 29.9205C133.207 30.2576 133.079 30.5473 132.821 30.7898C132.567 31.0284 132.26 31.1477 131.901 31.1477ZM134.533 41L134.521 39.0795H134.811C135.016 39.0795 135.192 39.0303 135.339 38.9318C135.491 38.8295 135.616 38.6648 135.714 38.4375C135.813 38.2102 135.891 37.9091 135.947 37.5341C136.004 37.1553 136.042 36.6894 136.061 36.1364L136.203 32.2727H142.839V41H140.533V34.1761H138.379L138.243 36.8409C138.209 37.572 138.12 38.2008 137.976 38.7273C137.836 39.2538 137.641 39.6856 137.391 40.0227C137.141 40.3561 136.839 40.6023 136.487 40.7614C136.135 40.9205 135.726 41 135.26 41H134.533ZM146.233 34.9545H148.841C149.996 34.9545 150.898 35.2311 151.545 35.7841C152.193 36.3333 152.517 37.0682 152.517 37.9886C152.517 38.5871 152.371 39.1136 152.08 39.5682C151.788 40.0189 151.367 40.3712 150.818 40.625C150.269 40.875 149.61 41 148.841 41H144.716V32.2727H147.028V39.0966H148.841C149.246 39.0966 149.58 38.9943 149.841 38.7898C150.102 38.5852 150.235 38.3239 150.239 38.0057C150.235 37.6686 150.102 37.3939 149.841 37.1818C149.58 36.9659 149.246 36.858 148.841 36.858H146.233V34.9545ZM160.196 35.6705V37.5739H155.639V35.6705H160.196ZM156.435 32.2727V41H154.122V32.2727H156.435ZM161.713 32.2727V41H159.418V32.2727H161.713ZM167.534 41.1705C166.652 41.1705 165.888 40.983 165.244 40.608C164.604 40.2292 164.11 39.7027 163.761 39.0284C163.413 38.3504 163.239 37.5644 163.239 36.6705C163.239 35.7689 163.413 34.9811 163.761 34.3068C164.11 33.6288 164.604 33.1023 165.244 32.7273C165.888 32.3485 166.652 32.1591 167.534 32.1591C168.417 32.1591 169.178 32.3485 169.818 32.7273C170.462 33.1023 170.958 33.6288 171.307 34.3068C171.655 34.9811 171.83 35.7689 171.83 36.6705C171.83 37.5644 171.655 38.3504 171.307 39.0284C170.958 39.7027 170.462 40.2292 169.818 40.608C169.178 40.983 168.417 41.1705 167.534 41.1705ZM167.545 39.2955C167.947 39.2955 168.282 39.1818 168.551 38.9545C168.82 38.7235 169.023 38.4091 169.159 38.0114C169.299 37.6136 169.369 37.161 169.369 36.6534C169.369 36.1458 169.299 35.6932 169.159 35.2955C169.023 34.8977 168.82 34.5833 168.551 34.3523C168.282 34.1212 167.947 34.0057 167.545 34.0057C167.14 34.0057 166.799 34.1212 166.523 34.3523C166.25 34.5833 166.044 34.8977 165.903 35.2955C165.767 35.6932 165.699 36.1458 165.699 36.6534C165.699 37.161 165.767 37.6136 165.903 38.0114C166.044 38.4091 166.25 38.7235 166.523 38.9545C166.799 39.1818 167.14 39.2955 167.545 39.2955ZM172.558 34.1761V32.2727H180.467V34.1761H177.655V41H175.348V34.1761H172.558ZM184.247 37.8068L187.389 32.2727H189.776V41H187.469V35.4489L184.338 41H181.935V32.2727H184.247V37.8068ZM194.608 29.3636L194.386 37.5114H192.307L192.08 29.3636H194.608ZM193.347 41.1477C192.972 41.1477 192.65 41.0152 192.381 40.75C192.112 40.4811 191.979 40.1591 191.983 39.7841C191.979 39.4129 192.112 39.0947 192.381 38.8295C192.65 38.5644 192.972 38.4318 193.347 38.4318C193.706 38.4318 194.023 38.5644 194.295 38.8295C194.568 39.0947 194.706 39.4129 194.71 39.7841C194.706 40.0341 194.64 40.2633 194.511 40.4716C194.386 40.6761 194.222 40.8409 194.017 40.9659C193.812 41.0871 193.589 41.1477 193.347 41.1477Z" fill="white"/>
<path d="M95.1332 53.4545V60H93.7653V54.5795H91.119V60H89.7511V53.4545H95.1332ZM98.6624 60.0959C98.1574 60.0959 97.7227 59.9936 97.3584 59.7891C96.9962 59.5824 96.7171 59.2905 96.521 58.9134C96.325 58.5341 96.227 58.0856 96.227 57.5678C96.227 57.0629 96.325 56.6197 96.521 56.2383C96.7171 55.8569 96.993 55.5597 97.3488 55.3466C97.7068 55.1335 98.1265 55.027 98.608 55.027C98.9319 55.027 99.2334 55.0792 99.5125 55.1836C99.7938 55.2859 100.039 55.4403 100.248 55.647C100.459 55.8537 100.623 56.1136 100.74 56.4268C100.857 56.7379 100.916 57.1023 100.916 57.5199V57.8938H96.7703V57.0501H99.634C99.634 56.854 99.5914 56.6804 99.5061 56.5291C99.4209 56.3778 99.3026 56.2596 99.1514 56.1744C99.0022 56.087 98.8286 56.0433 98.6304 56.0433C98.4237 56.0433 98.2405 56.0913 98.0807 56.1871C97.923 56.2809 97.7994 56.4077 97.71 56.5675C97.6205 56.7251 97.5747 56.9009 97.5725 57.0948V57.897C97.5725 58.1399 97.6173 58.3498 97.7068 58.5266C97.7984 58.7035 97.9273 58.8398 98.0935 58.9357C98.2597 59.0316 98.4568 59.0795 98.6847 59.0795C98.836 59.0795 98.9745 59.0582 99.1002 59.0156C99.2259 58.973 99.3335 58.9091 99.423 58.8239C99.5125 58.7386 99.5807 58.6342 99.6276 58.5107L100.887 58.5938C100.823 58.8963 100.692 59.1605 100.494 59.3864C100.298 59.6101 100.044 59.7848 99.733 59.9105C99.4241 60.0341 99.0672 60.0959 98.6624 60.0959ZM101.804 61.8409V55.0909H103.146V55.9155H103.207C103.267 55.7834 103.353 55.6491 103.466 55.5128C103.581 55.3743 103.73 55.2592 103.913 55.1676C104.099 55.0739 104.329 55.027 104.604 55.027C104.962 55.027 105.292 55.1207 105.595 55.3082C105.897 55.4936 106.139 55.7738 106.32 56.1488C106.501 56.5217 106.592 56.9893 106.592 57.5518C106.592 58.0994 106.503 58.5618 106.326 58.9389C106.152 59.3139 105.913 59.5984 105.611 59.7923C105.31 59.984 104.973 60.0799 104.601 60.0799C104.336 60.0799 104.112 60.0362 103.926 59.9489C103.743 59.8615 103.593 59.7518 103.476 59.6197C103.358 59.4854 103.269 59.3501 103.207 59.2138H103.166V61.8409H101.804ZM103.137 57.5455C103.137 57.8374 103.177 58.092 103.258 58.3093C103.339 58.5266 103.456 58.696 103.61 58.8175C103.763 58.9368 103.95 58.9964 104.169 58.9964C104.391 58.9964 104.578 58.9357 104.732 58.8143C104.885 58.6907 105.001 58.5202 105.08 58.3029C105.161 58.0835 105.201 57.831 105.201 57.5455C105.201 57.2621 105.162 57.0128 105.083 56.7976C105.004 56.5824 104.888 56.4141 104.735 56.2926C104.581 56.1712 104.393 56.1104 104.169 56.1104C103.948 56.1104 103.76 56.169 103.607 56.2862C103.455 56.4034 103.339 56.5696 103.258 56.7848C103.177 57 103.137 57.2536 103.137 57.5455ZM109.737 60.0959C109.232 60.0959 108.797 59.9936 108.433 59.7891C108.07 59.5824 107.791 59.2905 107.595 58.9134C107.399 58.5341 107.301 58.0856 107.301 57.5678C107.301 57.0629 107.399 56.6197 107.595 56.2383C107.791 55.8569 108.067 55.5597 108.423 55.3466C108.781 55.1335 109.201 55.027 109.682 55.027C110.006 55.027 110.308 55.0792 110.587 55.1836C110.868 55.2859 111.113 55.4403 111.322 55.647C111.533 55.8537 111.697 56.1136 111.814 56.4268C111.931 56.7379 111.99 57.1023 111.99 57.5199V57.8938H107.845V57.0501H110.708C110.708 56.854 110.666 56.6804 110.58 56.5291C110.495 56.3778 110.377 56.2596 110.226 56.1744C110.076 56.087 109.903 56.0433 109.705 56.0433C109.498 56.0433 109.315 56.0913 109.155 56.1871C108.997 56.2809 108.874 56.4077 108.784 56.5675C108.695 56.7251 108.649 56.9009 108.647 57.0948V57.897C108.647 58.1399 108.691 58.3498 108.781 58.5266C108.873 58.7035 109.002 58.8398 109.168 58.9357C109.334 59.0316 109.531 59.0795 109.759 59.0795C109.91 59.0795 110.049 59.0582 110.174 59.0156C110.3 58.973 110.408 58.9091 110.497 58.8239C110.587 58.7386 110.655 58.6342 110.702 58.5107L111.961 58.5938C111.897 58.8963 111.766 59.1605 111.568 59.3864C111.372 59.6101 111.118 59.7848 110.807 59.9105C110.498 60.0341 110.141 60.0959 109.737 60.0959ZM114.179 58.2038L115.946 55.0909H117.289V60H115.991V56.8775L114.23 60H112.878V55.0909H114.179V58.2038ZM115.713 53.3778H116.662C116.66 53.7656 116.516 54.0778 116.231 54.3143C115.948 54.5508 115.564 54.669 115.08 54.669C114.595 54.669 114.21 54.5508 113.927 54.3143C113.643 54.0778 113.502 53.7656 113.502 53.3778H114.444C114.442 53.5249 114.489 53.657 114.585 53.7741C114.683 53.8913 114.848 53.9499 115.08 53.9499C115.306 53.9499 115.468 53.8924 115.566 53.7773C115.664 53.6623 115.713 53.5291 115.713 53.3778ZM117.887 56.1616V55.0909H122.336V56.1616H120.754V60H119.456V56.1616H117.887ZM124.462 58.2038L126.23 55.0909H127.572V60H126.274V56.8775L124.513 60H123.161V55.0909H124.462V58.2038ZM130.746 60V55.0909H132.84C133.445 55.0909 133.923 55.206 134.275 55.4361C134.626 55.6662 134.802 55.9933 134.802 56.4173C134.802 56.6836 134.703 56.9052 134.505 57.082C134.307 57.2589 134.032 57.3782 133.68 57.44C133.974 57.4613 134.225 57.5284 134.431 57.6413C134.64 57.7521 134.799 57.896 134.908 58.0728C135.018 58.2496 135.074 58.4457 135.074 58.6609C135.074 58.94 134.999 59.1797 134.85 59.38C134.703 59.5803 134.487 59.7337 134.201 59.8402C133.918 59.9467 133.572 60 133.163 60H130.746ZM132.015 58.9805H133.163C133.352 58.9805 133.5 58.9357 133.607 58.8462C133.716 58.7546 133.77 58.63 133.77 58.4723C133.77 58.2976 133.716 58.1602 133.607 58.06C133.5 57.9599 133.352 57.9098 133.163 57.9098H132.015V58.9805ZM132.015 57.1108H132.869C133.005 57.1108 133.121 57.0916 133.217 57.0533C133.315 57.0128 133.39 56.9553 133.441 56.8807C133.494 56.8061 133.521 56.7177 133.521 56.6154C133.521 56.4641 133.46 56.3459 133.338 56.2607C133.217 56.1754 133.051 56.1328 132.84 56.1328H132.015V57.1108ZM139.874 54.5955V53.4545H145.25V54.5955H143.246V60H141.878V54.5955H139.874ZM147.635 60.0959C147.13 60.0959 146.695 59.9936 146.331 59.7891C145.969 59.5824 145.69 59.2905 145.494 58.9134C145.298 58.5341 145.2 58.0856 145.2 57.5678C145.2 57.0629 145.298 56.6197 145.494 56.2383C145.69 55.8569 145.966 55.5597 146.321 55.3466C146.679 55.1335 147.099 55.027 147.581 55.027C147.905 55.027 148.206 55.0792 148.485 55.1836C148.766 55.2859 149.011 55.4403 149.22 55.647C149.431 55.8537 149.595 56.1136 149.712 56.4268C149.83 56.7379 149.888 57.1023 149.888 57.5199V57.8938H145.743V57.0501H148.607C148.607 56.854 148.564 56.6804 148.479 56.5291C148.394 56.3778 148.275 56.2596 148.124 56.1744C147.975 56.087 147.801 56.0433 147.603 56.0433C147.396 56.0433 147.213 56.0913 147.053 56.1871C146.896 56.2809 146.772 56.4077 146.683 56.5675C146.593 56.7251 146.547 56.9009 146.545 57.0948V57.897C146.545 58.1399 146.59 58.3498 146.679 58.5266C146.771 58.7035 146.9 58.8398 147.066 58.9357C147.232 59.0316 147.429 59.0795 147.657 59.0795C147.809 59.0795 147.947 59.0582 148.073 59.0156C148.199 58.973 148.306 58.9091 148.396 58.8239C148.485 58.7386 148.553 58.6342 148.6 58.5107L149.859 58.5938C149.796 58.8963 149.665 59.1605 149.466 59.3864C149.27 59.6101 149.017 59.7848 148.706 59.9105C148.397 60.0341 148.04 60.0959 147.635 60.0959ZM152.138 53.4545V60H150.777V53.4545H152.138ZM155.466 60.0959C154.961 60.0959 154.526 59.9936 154.162 59.7891C153.8 59.5824 153.521 59.2905 153.325 58.9134C153.129 58.5341 153.031 58.0856 153.031 57.5678C153.031 57.0629 153.129 56.6197 153.325 56.2383C153.521 55.8569 153.797 55.5597 154.153 55.3466C154.51 55.1335 154.93 55.027 155.412 55.027C155.736 55.027 156.037 55.0792 156.316 55.1836C156.597 55.2859 156.843 55.4403 157.051 55.647C157.262 55.8537 157.426 56.1136 157.544 56.4268C157.661 56.7379 157.719 57.1023 157.719 57.5199V57.8938H153.574V57.0501H156.438C156.438 56.854 156.395 56.6804 156.31 56.5291C156.225 56.3778 156.106 56.2596 155.955 56.1744C155.806 56.087 155.632 56.0433 155.434 56.0433C155.227 56.0433 155.044 56.0913 154.884 56.1871C154.727 56.2809 154.603 56.4077 154.514 56.5675C154.424 56.7251 154.378 56.9009 154.376 57.0948V57.897C154.376 58.1399 154.421 58.3498 154.51 58.5266C154.602 58.7035 154.731 58.8398 154.897 58.9357C155.063 59.0316 155.26 59.0795 155.488 59.0795C155.64 59.0795 155.778 59.0582 155.904 59.0156C156.03 58.973 156.137 58.9091 156.227 58.8239C156.316 58.7386 156.384 58.6342 156.431 58.5107L157.691 58.5938C157.627 58.8963 157.496 59.1605 157.297 59.3864C157.101 59.6101 156.848 59.7848 156.537 59.9105C156.228 60.0341 155.871 60.0959 155.466 60.0959ZM160.819 61.9432C160.378 61.9432 160 61.8825 159.685 61.761C159.372 61.6417 159.122 61.4787 158.937 61.272C158.752 61.0653 158.631 60.8331 158.576 60.5753L159.835 60.4059C159.873 60.5039 159.934 60.5955 160.017 60.6808C160.1 60.766 160.21 60.8342 160.346 60.8853C160.485 60.9386 160.653 60.9652 160.851 60.9652C161.148 60.9652 161.392 60.8928 161.583 60.7479C161.777 60.6051 161.874 60.3654 161.874 60.0288V59.1307H161.817C161.757 59.267 161.667 59.396 161.548 59.5174C161.429 59.6388 161.275 59.7379 161.088 59.8146C160.9 59.8913 160.677 59.9297 160.417 59.9297C160.048 59.9297 159.713 59.8445 159.41 59.674C159.11 59.5014 158.87 59.2383 158.691 58.8846C158.514 58.5288 158.426 58.0792 158.426 57.5359C158.426 56.9798 158.516 56.5153 158.697 56.1424C158.878 55.7695 159.119 55.4904 159.42 55.305C159.722 55.1197 160.053 55.027 160.414 55.027C160.688 55.027 160.919 55.0739 161.104 55.1676C161.289 55.2592 161.438 55.3743 161.551 55.5128C161.666 55.6491 161.755 55.7834 161.817 55.9155H161.868V55.0909H163.22V60.0479C163.22 60.4656 163.117 60.815 162.913 61.0962C162.708 61.3775 162.425 61.5884 162.063 61.729C161.703 61.8718 161.288 61.9432 160.819 61.9432ZM160.848 58.907C161.068 58.907 161.253 58.8526 161.404 58.744C161.558 58.6332 161.675 58.4755 161.756 58.271C161.839 58.0643 161.881 57.8171 161.881 57.5295C161.881 57.2418 161.84 56.9925 161.759 56.7816C161.678 56.5685 161.561 56.4034 161.407 56.2862C161.254 56.169 161.068 56.1104 160.848 56.1104C160.624 56.1104 160.436 56.1712 160.282 56.2926C160.129 56.4119 160.013 56.5781 159.934 56.7912C159.855 57.0043 159.816 57.2504 159.816 57.5295C159.816 57.8129 159.855 58.0579 159.934 58.2646C160.015 58.4691 160.131 58.6278 160.282 58.7408C160.436 58.8516 160.624 58.907 160.848 58.907ZM164.303 60V55.0909H165.623V55.9474H165.674C165.764 55.6428 165.914 55.4126 166.125 55.2571C166.336 55.0994 166.579 55.0206 166.854 55.0206C166.922 55.0206 166.995 55.0249 167.074 55.0334C167.153 55.0419 167.222 55.0536 167.282 55.0685V56.2766C167.218 56.2575 167.129 56.2404 167.017 56.2255C166.904 56.2106 166.8 56.2031 166.706 56.2031C166.506 56.2031 166.327 56.2468 166.17 56.3342C166.014 56.4194 165.89 56.5387 165.799 56.6921C165.709 56.8455 165.665 57.0224 165.665 57.2227V60H164.303ZM169.245 60.0927C168.932 60.0927 168.653 60.0384 168.408 59.9297C168.163 59.8189 167.969 59.6559 167.826 59.4407C167.685 59.2234 167.615 58.9528 167.615 58.6289C167.615 58.3562 167.665 58.1271 167.765 57.9418C167.865 57.7564 168.002 57.6072 168.174 57.4943C168.347 57.3814 168.543 57.2962 168.762 57.2386C168.984 57.1811 169.216 57.1406 169.459 57.1172C169.745 57.0874 169.975 57.0597 170.149 57.0341C170.324 57.0064 170.451 56.9659 170.53 56.9126C170.609 56.8594 170.648 56.7805 170.648 56.6761V56.657C170.648 56.4545 170.584 56.2979 170.456 56.1871C170.331 56.0763 170.152 56.021 169.919 56.021C169.674 56.021 169.479 56.0753 169.334 56.1839C169.19 56.2905 169.094 56.4247 169.047 56.5866L167.788 56.4844C167.851 56.1861 167.977 55.9283 168.165 55.7109C168.352 55.4915 168.594 55.3232 168.89 55.206C169.188 55.0866 169.534 55.027 169.926 55.027C170.198 55.027 170.459 55.0589 170.709 55.1229C170.96 55.1868 171.183 55.2859 171.377 55.4201C171.573 55.5543 171.727 55.7269 171.84 55.9379C171.953 56.1467 172.009 56.397 172.009 56.6889V60H170.718V59.3192H170.68C170.601 59.4727 170.496 59.608 170.364 59.7251C170.231 59.8402 170.073 59.9308 169.887 59.9968C169.702 60.0607 169.488 60.0927 169.245 60.0927ZM169.635 59.1531C169.835 59.1531 170.012 59.1136 170.165 59.0348C170.319 58.9538 170.439 58.8452 170.527 58.7088C170.614 58.5724 170.658 58.418 170.658 58.2454V57.7244C170.615 57.7521 170.556 57.7777 170.482 57.8011C170.409 57.8224 170.327 57.8427 170.236 57.8619C170.144 57.8789 170.052 57.8949 169.961 57.9098C169.869 57.9226 169.786 57.9343 169.712 57.945C169.552 57.9684 169.412 58.0057 169.293 58.0568C169.174 58.108 169.081 58.1772 169.015 58.2646C168.949 58.3498 168.916 58.4563 168.916 58.5842C168.916 58.7695 168.983 58.9112 169.117 59.0092C169.253 59.1051 169.426 59.1531 169.635 59.1531ZM173.066 60V55.0909H174.363V55.957H174.421C174.523 55.6694 174.694 55.4425 174.932 55.2763C175.171 55.1101 175.456 55.027 175.789 55.027C176.125 55.027 176.412 55.1112 176.649 55.2795C176.885 55.4457 177.043 55.6715 177.122 55.957H177.173C177.273 55.6758 177.454 55.451 177.716 55.2827C177.98 55.1122 178.292 55.027 178.652 55.027C179.111 55.027 179.482 55.1729 179.768 55.4648C180.055 55.7546 180.199 56.1658 180.199 56.6985V60H178.841V56.967C178.841 56.6942 178.769 56.4897 178.624 56.3533C178.479 56.217 178.298 56.1488 178.08 56.1488C177.833 56.1488 177.64 56.2276 177.502 56.3853C177.363 56.5408 177.294 56.7464 177.294 57.0021V60H175.974V56.9382C175.974 56.6974 175.905 56.5057 175.766 56.3629C175.63 56.2202 175.45 56.1488 175.226 56.1488C175.075 56.1488 174.939 56.1871 174.817 56.2638C174.698 56.3384 174.603 56.4439 174.533 56.5803C174.462 56.7145 174.427 56.8722 174.427 57.0533V60H173.066ZM190.206 57.945L185.706 59.9265V58.6321L188.787 57.3952L188.745 57.4624V57.3026L188.787 57.3697L185.706 56.1328V54.8384L190.206 56.82V57.945ZM196.323 57.945L191.823 59.9265V58.6321L194.904 57.3952L194.863 57.4624V57.3026L194.904 57.3697L191.823 56.1328V54.8384L196.323 56.82V57.945Z" fill="white"/>
<rect x="34.0144" y="2" width="52" height="52" rx="3" transform="rotate(38 34.0144 2)" fill="black"/>
<rect x="33.0144" width="52" height="52" rx="3" transform="rotate(38 33.0144 0)" fill="#FBC034"/>
<rect x="33.6379" y="3.70184" width="47" height="47" rx="2.5" transform="rotate(38 33.6379 3.70184)" stroke="black"/>
<path d="M47.0161 25.256C47.0161 25.256 50.2539 24.0007 49.984 27.0493C49.8941 28.3046 49.0847 32.6981 48.4551 37.4503L46.2966 51.5274C46.2966 51.5274 46.1168 53.5897 44.4979 53.9484C42.8789 54.307 40.4507 52.6931 40.0009 52.3344C39.6412 52.0654 33.2557 48.0305 31.0072 46.058C30.3776 45.52 29.6581 44.444 31.0971 43.1887L40.5406 34.2224C41.6199 33.1464 42.6991 30.6359 38.2022 33.6844L25.6109 42.2025C25.6109 42.2025 24.1719 43.0991 21.4738 42.2921L15.6279 40.4988C15.6279 40.4988 13.4693 39.1539 17.1568 37.8089C26.1506 33.5947 37.2129 29.2908 47.0161 25.256Z" fill="black"/>
</g>
<defs>
<clipPath id="clip0_1776_3">
<rect width="221" height="75" fill="white"/>
</clipPath>
</defs>
</svg>
